<svg width="129" height="27" viewBox="0 0 129 27" fill="none" xmlns="http://www.w3.org/2000/svg">
<path d="M14.7771 3.79863C13.6037 3.79863 12.6723 4.8165 12.637 6.04812C12.6354 6.06112 12.6346 6.07421 12.6346 6.08731V6.09973V6.10021C12.6346 6.10681 12.6337 6.1132 12.6337 6.11981C12.6335 6.13001 12.6338 6.14022 12.6346 6.15039L12.6318 7.6338C12.6316 7.65596 12.6338 7.67807 12.6385 7.69975C12.6385 7.70023 12.6385 7.7007 12.6385 7.70118C12.6599 8.38283 12.905 9.00834 13.3013 9.48949C12.886 9.98703 12.6351 10.6412 12.6275 11.3552C12.6255 11.3698 12.6245 11.3845 12.6246 11.3992L12.6146 16.6949C12.6146 16.6955 12.6146 16.6962 12.6146 16.6968C12.6146 16.6975 12.6146 16.6981 12.6146 16.6987V16.7389C12.6145 16.7565 12.6159 16.7741 12.6189 16.7914C12.6189 16.7921 12.6189 16.7927 12.6189 16.7934C12.633 17.5803 12.9401 18.2949 13.4399 18.8029C12.923 19.3253 12.608 20.0696 12.6084 20.8789V20.8794C12.6074 20.8893 12.6069 20.8992 12.6069 20.909L12.5998 24.6755C12.5998 24.6766 12.5998 24.6777 12.5998 24.6788C12.5998 24.6793 12.5998 24.6798 12.5998 24.6803V24.7185C12.5995 24.7369 12.601 24.7553 12.6041 24.7735C12.6503 25.9947 13.5771 27 14.7432 27C15.474 27 16.1108 26.6041 16.4966 26.0088C16.6171 26.0661 16.7412 26.1171 16.8727 26.1536C18.1923 26.5204 19.5312 25.6336 19.8561 24.2272C19.8693 24.1702 19.8781 24.1132 19.8877 24.0561C21.0687 24.5017 22.4255 23.9914 23.0767 22.7911C23.5946 21.8362 23.5541 20.6969 23.058 19.8082C23.3985 19.503 23.6895 19.1222 23.9072 18.6751C24.7252 16.9952 24.2539 14.9429 22.8468 13.8721C23.0196 13.493 23.1206 13.0697 23.1206 12.6205C23.1206 11.237 22.1936 10.0648 20.9571 9.83331C21.4739 8.50168 21.1056 6.9191 19.977 6.03016C19.3225 5.51478 18.5298 5.34167 17.7844 5.47531C17.476 5.5306 17.177 5.64113 16.8979 5.79886C16.7532 4.68241 15.87 3.79885 14.7769 3.79885L14.7771 3.79863ZM12.1428 3.80293C11.4081 3.80923 10.6757 3.88523 9.95541 4.02993L9.95685 4.03089L9.95732 4.03137C9.96668 4.05067 9.97576 4.07011 9.98456 4.08967L9.99078 4.10496C10.2218 4.65927 10.2234 5.2826 9.9953 5.8381C9.76718 6.39361 9.32794 6.83589 8.77403 7.06786C8.22021 7.29965 7.59706 7.30227 7.04131 7.07515C6.48557 6.84802 6.04262 6.4097 5.80967 5.85637C5.79929 5.8298 5.78941 5.80303 5.78004 5.77608C4.53236 6.61876 3.46047 7.69604 2.62409 8.94794C3.11104 9.187 3.49611 9.59276 3.70939 10.0916L3.71608 10.1073C3.94695 10.6616 3.9485 11.2848 3.72038 11.8402C3.49227 12.3956 3.05312 12.8378 2.49933 13.0697C1.98755 13.2833 1.41524 13.3018 0.890721 13.1218C0.585693 14.6327 0.584556 16.1893 0.887375 17.7006C0.911229 17.6889 0.935287 17.6776 0.959538 17.6667C1.51248 17.4329 2.1356 17.4279 2.69217 17.653C3.24874 17.8781 3.6933 18.3147 3.92831 18.8672L3.935 18.8829C4.16571 19.4371 4.16718 20.0602 3.93907 20.6155C3.71097 21.1708 3.27192 21.6129 2.71825 21.8448C2.68885 21.8561 2.65921 21.8668 2.62936 21.8769C3.48439 23.1474 4.58232 24.2363 5.85994 25.0808C6.09168 24.547 6.51979 24.1229 7.05565 23.8961C7.60865 23.6621 8.23189 23.6571 8.78858 23.8822C9.34526 24.1072 9.7899 24.544 10.0249 25.0965L10.0316 25.1123C10.2541 25.649 10.2619 26.2507 10.0536 26.7931C10.7425 26.9234 11.4418 26.9911 12.143 26.9952V20.1489C11.2292 20.1262 10.3413 19.8404 9.58585 19.3258C8.83037 18.8112 8.2393 18.0897 7.88349 17.2477C7.3949 16.0873 7.3867 14.7805 7.86067 13.6141C8.33465 12.4477 9.25208 11.517 10.4116 11.0263C10.9605 10.7958 11.5478 10.6705 12.143 10.6569V3.80277L12.1428 3.80293ZM14.7771 4.41034C15.6108 4.41034 16.3092 5.15736 16.3092 6.11978C16.3088 6.1549 16.3145 6.18982 16.3259 6.22301C16.1601 6.38067 16.0073 6.55833 15.8748 6.76066C15.8522 6.79426 15.8365 6.83201 15.8286 6.87172C15.8207 6.91142 15.8208 6.9523 15.8288 6.99198C15.8369 7.03166 15.8527 7.06935 15.8754 7.10287C15.8981 7.13638 15.9273 7.16506 15.9611 7.18723C15.995 7.2094 16.0329 7.22463 16.0727 7.23202C16.1126 7.23942 16.1534 7.23885 16.193 7.23033C16.2326 7.22181 16.2701 7.20552 16.3033 7.1824C16.3365 7.15928 16.3649 7.1298 16.3866 7.09566C17.1432 5.94013 18.5562 5.6893 19.5986 6.51022C20.641 7.33117 20.8886 8.95757 20.1319 10.1132C19.7018 10.7702 19.0555 11.1273 18.39 11.1689C18.3232 11.1731 18.2563 11.1702 18.1893 11.168C18.1741 10.4571 17.8975 9.75561 17.3654 9.24392C17.6657 8.78665 17.8453 8.23134 17.8509 7.63387C17.8516 7.59351 17.8444 7.55341 17.8295 7.51588C17.8147 7.47835 17.7925 7.44413 17.7644 7.4152C17.7362 7.38626 17.7027 7.36318 17.6656 7.34729C17.6284 7.33139 17.5886 7.323 17.5482 7.32259C17.5078 7.32218 17.4678 7.32976 17.4304 7.3449C17.393 7.36003 17.3589 7.38243 17.3302 7.41079C17.3015 7.43914 17.2786 7.47291 17.263 7.51013C17.2474 7.54735 17.2393 7.58729 17.2392 7.62765C17.2274 8.87171 16.3125 9.83653 15.222 9.8241C14.1315 9.81169 13.2336 8.82536 13.2454 7.58131C13.2456 7.57111 13.2453 7.5609 13.2445 7.55072C13.2442 7.54865 13.2438 7.54658 13.2435 7.54451L13.2459 6.24939L13.2464 6.09933C13.2564 5.14699 13.9494 4.41034 14.7771 4.41034ZM16.9726 9.71732C17.7095 10.4606 17.7825 11.7457 17.1178 12.5833C17.065 12.6499 17.0096 12.7115 16.9515 12.7683C16.9252 12.794 16.8966 12.8152 16.8693 12.839C16.8481 12.8087 16.8287 12.777 16.8062 12.7477C16.4064 12.2253 15.8221 11.8667 15.1427 11.8005C15.1327 11.7994 15.1226 11.7987 15.1126 11.7986C15.0331 11.7973 14.9563 11.827 14.8984 11.8814C14.8404 11.9357 14.8059 12.0105 14.8021 12.0899C14.7984 12.1692 14.8256 12.2469 14.8781 12.3066C14.9306 12.3662 15.0042 12.4031 15.0834 12.4094C16.082 12.5066 16.8457 13.4864 16.7532 14.6287C16.7387 14.8073 16.7042 14.9778 16.6524 15.1382C16.6391 15.1766 16.6336 15.2174 16.6362 15.258C16.6389 15.2986 16.6496 15.3383 16.6678 15.3747C16.686 15.4111 16.7112 15.4435 16.7421 15.4701C16.773 15.4966 16.8088 15.5167 16.8475 15.5292C16.8863 15.5417 16.9271 15.5463 16.9677 15.5428C17.0082 15.5393 17.0477 15.5278 17.0837 15.5089C17.1197 15.49 17.1516 15.464 17.1775 15.4326C17.2034 15.4012 17.2227 15.365 17.2344 15.326C17.3008 15.1207 17.3447 14.9036 17.363 14.678C17.3999 14.2227 17.3272 13.7816 17.1685 13.3867C17.3233 13.2659 17.4679 13.1256 17.5967 12.9633C17.8761 12.6111 18.0556 12.2032 18.1386 11.78C18.8517 11.8112 19.5631 11.5586 20.1233 11.0564C20.1717 11.0131 20.2187 10.9678 20.2648 10.9207C20.403 10.7795 20.5303 10.6219 20.6438 10.4485C20.6522 10.4356 20.6589 10.4219 20.6672 10.4089C21.687 10.4965 22.509 11.4358 22.509 12.6201C22.509 12.9399 22.4484 13.2426 22.3398 13.5157C22.3356 13.5263 22.3298 13.5358 22.3255 13.5463C21.9584 13.3598 21.574 13.2453 21.1876 13.207C20.8133 13.17 20.4391 13.2037 20.0793 13.2969C19.963 12.9714 19.7437 12.6855 19.4337 12.4992C19.3813 12.4668 19.3203 12.451 19.2588 12.4538C19.1929 12.4569 19.1297 12.4812 19.0788 12.5231C19.0278 12.565 18.9918 12.6223 18.976 12.6864C18.9603 12.7504 18.9657 12.8179 18.9914 12.8786C19.0171 12.9394 19.0618 12.9902 19.1188 13.0235C19.5221 13.2658 19.6865 13.8561 19.4542 14.321C19.4179 14.3937 19.375 14.4581 19.3271 14.514C19.2997 14.5444 19.2785 14.5799 19.265 14.6185C19.2515 14.6572 19.2459 14.6981 19.2486 14.739C19.2512 14.7798 19.262 14.8197 19.2803 14.8563C19.2986 14.8929 19.324 14.9254 19.3552 14.952C19.3863 14.9786 19.4224 14.9986 19.4614 15.011C19.5004 15.0234 19.5415 15.0278 19.5823 15.024C19.623 15.0202 19.6626 15.0082 19.6986 14.9888C19.7347 14.9695 19.7665 14.943 19.7921 14.9112C19.8729 14.8168 19.9432 14.7109 20.0014 14.5943C20.1112 14.3745 20.1663 14.1387 20.1735 13.9047C20.8298 13.7172 21.543 13.7849 22.1931 14.1656C23.5663 14.9699 24.102 16.8775 23.3573 18.407C22.9881 19.1651 22.3834 19.6785 21.7047 19.91C21.3992 20.0142 21.0967 19.9863 20.7713 19.8163C20.446 19.6464 20.1056 19.3236 19.7983 18.8433C19.7968 18.8409 19.7952 18.8385 19.7935 18.8362C20.2223 18.4969 20.5086 17.9596 20.5338 17.3537C20.5361 17.3129 20.5301 17.272 20.5163 17.2335C20.5025 17.195 20.4811 17.1597 20.4533 17.1296C20.4256 17.0995 20.3922 17.0753 20.3549 17.0584C20.3177 17.0415 20.2774 17.0322 20.2366 17.0311C20.1555 17.0289 20.0769 17.059 20.0181 17.1148C19.9592 17.1705 19.9248 17.2473 19.9226 17.3284C19.8912 18.0823 19.3258 18.6309 18.682 18.5986C18.5813 18.5936 18.4849 18.5746 18.3928 18.5437C18.3547 18.5309 18.3145 18.5257 18.2744 18.5284C18.2343 18.5312 18.1951 18.5418 18.1592 18.5597C18.1232 18.5776 18.0911 18.6024 18.0646 18.6327C18.0382 18.663 18.0181 18.6982 18.0053 18.7363C17.9925 18.7744 17.9873 18.8146 17.99 18.8547C17.9928 18.8948 18.0034 18.9339 18.0213 18.9699C18.0392 19.0059 18.064 19.038 18.0943 19.0644C18.1246 19.0909 18.1598 19.111 18.1979 19.1238C18.3417 19.1722 18.4941 19.2015 18.6514 19.2094C18.8633 19.22 19.0666 19.1886 19.2574 19.1257C19.2646 19.1422 19.2732 19.1581 19.2832 19.1731C19.6331 19.7199 20.039 20.1241 20.488 20.3587C20.9369 20.5933 21.4369 20.6479 21.9021 20.4892C22.1302 20.4114 22.3494 20.3054 22.5582 20.1776C22.9153 20.873 22.939 21.7615 22.5391 22.4988C21.9842 23.5218 20.8669 23.8803 19.9239 23.4058C19.8575 22.3028 19.1585 21.3152 18.1069 21.0139C18.19 20.5064 18.0869 19.9653 17.78 19.5171C17.7517 19.4744 17.713 19.4394 17.6675 19.4156C17.6221 19.3917 17.5714 19.3796 17.5201 19.3805C17.4766 19.3812 17.4338 19.3911 17.3945 19.4097C17.3552 19.4282 17.3203 19.4549 17.2921 19.4881C17.2639 19.5212 17.2431 19.5599 17.2311 19.6016C17.2191 19.6434 17.2161 19.6873 17.2223 19.7303C17.2237 19.7404 17.2256 19.7505 17.2281 19.7604C17.2372 19.7971 17.2531 19.8318 17.2749 19.8627C17.68 20.4543 17.5653 21.3131 17.0355 21.7494C16.9526 21.8177 16.8657 21.8714 16.7764 21.9119C16.7383 21.9274 16.7036 21.9504 16.6745 21.9796C16.6455 22.0088 16.6226 22.0436 16.6073 22.0819C16.592 22.1202 16.5846 22.1611 16.5856 22.2023C16.5865 22.2435 16.5957 22.2841 16.6128 22.3216C16.6298 22.3592 16.6542 22.3929 16.6845 22.4207C16.7149 22.4486 16.7506 22.47 16.7894 22.4838C16.8283 22.4975 16.8695 22.5032 16.9106 22.5006C16.9518 22.498 16.9919 22.4872 17.0288 22.4687C17.1675 22.4057 17.3009 22.3234 17.4245 22.2216C17.6367 22.0467 17.8014 21.8319 17.9196 21.5955C17.9215 21.5962 17.9234 21.5968 17.9253 21.5974C18.8999 21.8683 19.516 22.9795 19.2596 24.0893C19.0673 24.9216 18.4612 25.4872 17.759 25.6038C17.7005 25.6135 17.6414 25.6205 17.5817 25.6239C17.4623 25.6306 17.3407 25.6242 17.219 25.6043C17.1581 25.5943 17.0973 25.5811 17.0364 25.5641C16.9397 25.5373 16.8485 25.4997 16.7597 25.4575C16.8408 25.2128 16.8868 24.951 16.8868 24.6786C16.8878 24.5987 16.8575 24.5215 16.8023 24.4637C16.7472 24.4059 16.6716 24.3719 16.5917 24.3691C16.5118 24.3663 16.4341 24.3949 16.375 24.4487C16.3159 24.5025 16.2802 24.5773 16.2756 24.6571C16.2752 24.6642 16.275 24.6714 16.2751 24.6786C16.2751 25.5808 15.661 26.2938 14.8973 26.3794C14.8464 26.3851 14.7951 26.388 14.7429 26.388C13.9097 26.388 13.212 25.6417 13.2113 24.68C13.2113 24.6795 13.2113 24.6791 13.2113 24.6786L13.2184 21.0213C13.2194 21.0087 13.2195 20.9961 13.2189 20.9835C13.1661 19.7602 14.0048 18.7508 15.0703 18.6657C15.1871 18.9819 15.3811 19.2704 15.6524 19.4939C15.776 19.5957 15.9089 19.6785 16.0476 19.7414C16.0843 19.7587 16.1241 19.7686 16.1646 19.7704C16.2051 19.7722 16.2456 19.7659 16.2837 19.7519C16.3218 19.7379 16.3567 19.7164 16.3864 19.6888C16.4161 19.6612 16.44 19.6279 16.4568 19.591C16.4735 19.554 16.4827 19.5141 16.4839 19.4735C16.485 19.433 16.4781 19.3926 16.4635 19.3547C16.4489 19.3169 16.4269 19.2823 16.3989 19.253C16.3708 19.2238 16.3371 19.2004 16.2999 19.1842C16.2106 19.1437 16.1238 19.09 16.0409 19.0217C15.5111 18.5853 15.3963 17.7266 15.8015 17.135C15.834 17.0888 15.8532 17.0346 15.8568 16.9783C15.8604 16.9219 15.8484 16.8657 15.822 16.8157C15.7956 16.7658 15.756 16.7242 15.7074 16.6954C15.6588 16.6666 15.6032 16.6519 15.5467 16.6528C15.4971 16.6536 15.4484 16.6664 15.4049 16.6902C15.3613 16.7141 15.3242 16.7481 15.2968 16.7895C15.0343 17.1728 14.9208 17.6242 14.9451 18.0645C14.5738 18.1058 14.2286 18.2293 13.9233 18.4186C13.4937 18.0076 13.217 17.3944 13.2261 16.7049L13.2308 14.088L13.2361 11.4361C13.2366 11.4279 13.2367 11.4198 13.2366 11.4117C13.2311 10.8356 13.4237 10.3124 13.7388 9.91729C14.155 10.2373 14.6621 10.4295 15.2146 10.4358C15.8926 10.4435 16.5065 10.168 16.9723 9.71753L16.9726 9.71732Z" fill="url(#paint0_linear_1_11)"/>
<path d="M32.436 18.068C32.436 17.828 32.34 17.6 32.148 17.384C31.964 17.168 31.736 16.972 31.464 16.796C31.192 16.612 30.812 16.38 30.324 16.1C29.724 15.756 29.244 15.464 28.884 15.224C28.524 14.976 28.216 14.688 27.96 14.36C27.704 14.024 27.576 13.656 27.576 13.256C27.576 12.856 27.764 12.428 28.14 11.972C28.516 11.508 28.976 11.12 29.52 10.808C30.072 10.488 30.576 10.328 31.032 10.328C31.584 10.328 32.228 10.388 32.964 10.508C33.708 10.628 34.252 10.756 34.596 10.892V13.604H33.252C32.948 12.956 32.6 12.452 32.208 12.092C31.816 11.732 31.408 11.552 30.984 11.552C30.704 11.552 30.484 11.644 30.324 11.828C30.164 12.004 30.084 12.232 30.084 12.512C30.084 12.768 30.18 13.012 30.372 13.244C30.564 13.468 30.8 13.676 31.08 13.868C31.368 14.052 31.76 14.28 32.256 14.552C32.84 14.88 33.308 15.164 33.66 15.404C34.02 15.644 34.324 15.928 34.572 16.256C34.828 16.576 34.956 16.932 34.956 17.324C34.956 17.724 34.752 18.156 34.344 18.62C33.944 19.076 33.456 19.464 32.88 19.784C32.304 20.096 31.776 20.252 31.296 20.252C30.712 20.252 30.024 20.192 29.232 20.072C28.44 19.952 27.868 19.824 27.516 19.688V16.964H28.848C29.176 17.612 29.56 18.116 30 18.476C30.448 18.836 30.9 19.016 31.356 19.016C31.684 19.016 31.944 18.924 32.136 18.74C32.336 18.556 32.436 18.332 32.436 18.068ZM43.5143 20H40.6583V19.028L39.4223 20.036C39.2063 20.1 38.9543 20.132 38.6663 20.132C38.0343 20.132 37.5303 19.968 37.1543 19.64C36.7783 19.304 36.5903 18.852 36.5903 18.284V15.8L35.5223 15.188V14.432L37.9703 13.376H38.8103V17.288C38.8103 17.648 38.8623 17.904 38.9663 18.056C39.0783 18.208 39.2703 18.284 39.5423 18.284C39.9103 18.284 40.2863 18.176 40.6703 17.96V15.8L39.6023 15.188V14.432L42.0383 13.376H42.8903V18.776L43.9583 19.124L43.5143 20ZM56.2059 19.964H53.3499V15.992C53.3499 15.704 53.3019 15.5 53.2059 15.38C53.1179 15.26 52.9579 15.2 52.7259 15.2C52.3819 15.2 52.0419 15.308 51.7059 15.524V18.776L52.6899 19.1L52.2459 19.976H49.4859V16.004C49.4859 15.716 49.4379 15.512 49.3419 15.392C49.2539 15.272 49.0939 15.212 48.8619 15.212C48.5179 15.212 48.1779 15.32 47.8419 15.536V18.788L48.8259 19.112L48.3819 19.988H44.5539V19.22L45.6219 18.308V15.788L44.5539 15.104V14.336L47.1939 13.28L47.6739 14.624L49.0659 13.484C49.2579 13.42 49.4779 13.388 49.7259 13.388C50.1979 13.388 50.5939 13.492 50.9139 13.7C51.2419 13.908 51.4699 14.196 51.5979 14.564L52.9299 13.484C53.1219 13.42 53.3419 13.388 53.5899 13.388C54.1979 13.388 54.6779 13.556 55.0299 13.892C55.3899 14.22 55.5699 14.668 55.5699 15.236V18.776L56.6499 19.088L56.2059 19.964ZM68.8622 19.964H66.0062V15.992C66.0062 15.704 65.9582 15.5 65.8622 15.38C65.7742 15.26 65.6142 15.2 65.3822 15.2C65.0382 15.2 64.6982 15.308 64.3622 15.524V18.776L65.3462 19.1L64.9022 19.976H62.1422V16.004C62.1422 15.716 62.0942 15.512 61.9982 15.392C61.9102 15.272 61.7502 15.212 61.5182 15.212C61.1742 15.212 60.8342 15.32 60.4982 15.536V18.788L61.4822 19.112L61.0382 19.988H57.2102V19.22L58.2782 18.308V15.788L57.2102 15.104V14.336L59.8502 13.28L60.3302 14.624L61.7222 13.484C61.9142 13.42 62.1342 13.388 62.3822 13.388C62.8542 13.388 63.2502 13.492 63.5702 13.7C63.8982 13.908 64.1262 14.196 64.2542 14.564L65.5862 13.484C65.7782 13.42 65.9982 13.388 66.2462 13.388C66.8542 13.388 67.3342 13.556 67.6862 13.892C68.0462 14.22 68.2262 14.668 68.2262 15.236V18.776L69.3062 19.088L68.8622 19.964ZM76.9944 20H74.1264V18.956L72.7704 20.024C72.6104 20.088 72.4104 20.12 72.1704 20.12C71.3784 20.12 70.8064 19.928 70.4544 19.544C70.1024 19.152 69.9264 18.684 69.9264 18.14C69.9264 17.828 70.0224 17.52 70.2144 17.216C70.4064 16.912 70.6784 16.632 71.0304 16.376H74.1264V16.328C74.1264 15.912 74.0104 15.604 73.7784 15.404C73.5544 15.196 73.2544 15.092 72.8784 15.092C72.3264 15.092 71.5544 15.284 70.5624 15.668L70.2024 14.924L71.8584 13.592C72.2824 13.456 72.7824 13.388 73.3584 13.388C74.3024 13.388 75.0344 13.6 75.5544 14.024C76.0824 14.448 76.3464 15.064 76.3464 15.872V18.704L77.4264 19.124L76.9944 20ZM72.8544 18.32C73.2304 18.32 73.6544 18.168 74.1264 17.864V17.252H72.2424C72.1544 17.396 72.1104 17.552 72.1104 17.72C72.1104 17.904 72.1744 18.052 72.3024 18.164C72.4384 18.268 72.6224 18.32 72.8544 18.32ZM82.0433 15.236C81.7793 15.236 81.5273 15.332 81.2873 15.524V18.644L83.1593 19.112L82.7273 19.988H77.9993V19.22L79.0673 18.308V15.788L77.9993 15.104V14.336L80.6393 13.28L81.0953 14.576L82.1513 13.484C82.3193 13.42 82.5073 13.388 82.7153 13.388C83.1873 13.388 83.5833 13.492 83.9033 13.7C84.2313 13.9 84.4593 14.18 84.5872 14.54L83.3393 16.112H82.4873C82.4793 15.792 82.4393 15.568 82.3673 15.44C82.3033 15.304 82.1953 15.236 82.0433 15.236ZM88.9431 20H85.0071V19.232L86.0751 18.32V15.764L85.0071 15.056V14.3L87.4431 13.28H88.2951V18.776L89.3751 19.124L88.9431 20ZM87.1791 9.656C87.5551 9.656 87.8591 9.776 88.0911 10.016C88.3311 10.248 88.4511 10.536 88.4511 10.88C88.4511 11.128 88.3631 11.36 88.1871 11.576C88.0191 11.784 87.8031 11.952 87.5391 12.08C87.2831 12.208 87.0351 12.272 86.7951 12.272C86.4271 12.272 86.1191 12.156 85.8711 11.924C85.6311 11.684 85.5111 11.392 85.5111 11.048C85.5111 10.8 85.5951 10.572 85.7631 10.364C85.9391 10.148 86.1591 9.976 86.4231 9.848C86.6871 9.72 86.9391 9.656 87.1791 9.656ZM95.2801 17.78L95.7601 16.7L96.5161 16.916V20.216L95.4601 20H90.2401V19.148L93.7921 15.728H91.5481L91.0921 16.688L90.3481 16.472V13.292L91.3921 13.508H96.6241V14.36L93.0841 17.78H95.2801ZM102.015 13.388C102.879 13.388 103.547 13.716 104.019 14.372C104.499 15.02 104.731 15.936 104.715 17.12H100.431C100.519 17.544 100.683 17.884 100.923 18.14C101.163 18.388 101.475 18.512 101.859 18.512C102.427 18.512 103.255 18.268 104.343 17.78L104.703 18.524L102.975 19.916C102.471 20.052 101.867 20.12 101.163 20.12C100.563 20.12 100.023 19.984 99.5431 19.712C99.0631 19.432 98.6871 19.052 98.4151 18.572C98.1511 18.092 98.0191 17.556 98.0191 16.964C98.0191 16.324 98.2271 15.732 98.6431 15.188C99.0591 14.636 99.5791 14.2 100.203 13.88C100.827 13.552 101.431 13.388 102.015 13.388ZM101.367 14.888C101.039 14.888 100.791 15 100.623 15.224C100.463 15.44 100.375 15.776 100.359 16.232H102.495C102.447 15.776 102.339 15.44 102.171 15.224C102.003 15 101.735 14.888 101.367 14.888ZM118.503 20.012H114.075V19.244L115.203 18.356V12.896L112.299 20.012H111.147L108.159 12.788V18.62L109.527 19.136L109.083 20.012H105.891V19.244L107.019 18.356V11.972L105.675 11.432L106.107 10.568H109.719L112.383 16.976L114.987 10.568H118.731V11.324L117.591 12.212V18.788L118.947 19.136L118.503 20.012ZM123.894 13.388C124.758 13.388 125.426 13.716 125.898 14.372C126.378 15.02 126.61 15.936 126.594 17.12H122.31C122.398 17.544 122.562 17.884 122.802 18.14C123.042 18.388 123.354 18.512 123.738 18.512C124.306 18.512 125.134 18.268 126.222 17.78L126.582 18.524L124.854 19.916C124.35 20.052 123.746 20.12 123.042 20.12C122.442 20.12 121.902 19.984 121.422 19.712C120.942 19.432 120.566 19.052 120.294 18.572C120.03 18.092 119.898 17.556 119.898 16.964C119.898 16.324 120.106 15.732 120.522 15.188C120.938 14.636 121.458 14.2 122.082 13.88C122.706 13.552 123.31 13.388 123.894 13.388ZM123.246 14.888C122.918 14.888 122.67 15 122.502 15.224C122.342 15.44 122.254 15.776 122.238 16.232H124.374C124.326 15.776 124.218 15.44 124.05 15.224C123.882 15 123.614 14.888 123.246 14.888Z" fill="black"/>
<defs>
<linearGradient id="paint0_linear_1_11" x1="0.661102" y1="3.79863" x2="24.3085" y2="3.79863" gradientUnits="userSpaceOnUse">
<stop stop-color="#EF4136"/>
<stop offset="1" stop-color="#FBB040"/>
</linearGradient>
</defs>
</svg>
